<?xml version="1.0" encoding="utf-8"?>
<!-- Generator: Adobe Illustrator 19.0.0, SVG Export Plug-In . SVG Version: 6.00 Build 0)  -->
<svg version="1.1" id="Layer_1" xmlns="http://www.w3.org/2000/svg" xmlns:xlink="http://www.w3.org/1999/xlink" x="0px" y="0px"
	 viewBox="0 0 87.8 68.1" style="enable-background:new 0 0 87.8 68.1;" xml:space="preserve">
<style type="text/css">
	.st0{fill:#F8FBF8;}
	.st1{fill:#7360A7;}
	.st2{fill:#965BA5;}
	.st3{fill:#F2F2F2;}
</style>
<g id="XMLID_115_">
	<path id="XMLID_4321_" class="st0" d="M87,25.2c-0.5-0.8-1.9-2.8-5.2-2.8H68.8c-1.8,0-4.7,0.8-6.7,3.3L55.4,4.3l-0.3-1l-0.1,0
		L54.8,3l-0.3-0.7l-0.8-0.1l-1.1-0.2L41.5,0l-0.2,0l-0.1,0h-0.1h-0.2h-5.6h-7.5h-5.6H22h-0.1l-0.1,0l-0.2,0L10.4,1.9l-1,0.2L8.8,2.2
		L8.5,2.8L7.8,4.1L7.7,4.2l0,0.2L0.2,30.6l-0.1,0.4L0,31.2l0,0.3l0,0.4l1.9,20.6l0.2,1.9l0.1,1.3h1.3h1.9h4.9c0.1,5,1,8.4,1,8.6
		l0.6,2.3l0.4,1.6l1.5-0.6l2.2-0.9c0.3-0.1,8-3.4,12.8-12.1l0.2,0.2l1.5,1.5l1,1l1-1l1.5-1.5l0.2-0.2c4.9,8.8,12.5,12,12.8,12.1
		l2.3,0.9l1.5,0.6l0.4-1.6l0.6-2.4c0-0.1,0.2-0.8,0.3-1.9c1.4,0.5,3.2,0.8,5.4,0.8h3.7c0.8,0,7.6-0.2,12.3-7.1
		c3.8-5.7,11-18.4,11.3-18.9c0.2-0.3,1.1-1.8,1.8-3.7C88,29.8,88.1,27.2,87,25.2z M51.6,21.7l1.8-7.2l3.3,10.8L51.6,21.7z
		 M80.6,34.5c-0.1,0.2-7.4,13.1-11.2,18.6c-3.3,4.9-8,5-8.2,5h-3.7c-2.9,0-4.6-0.6-4.9-1.5c0-0.3,0-0.5,0-0.8
		c0.1-0.6,0.4-1.1,0.4-1.1l5.6-9.4l0.2-0.3v-0.4c0-4.4,1.9-8.6,5.2-11.5l0.4-0.4l0.1-0.5c0.5-4.7,3.8-4.8,4.1-4.8h13.1
		c0.5,0,0.8,0.1,0.9,0.3C83.3,28.6,82.1,32,80.6,34.5z"/>
	<path id="XMLID_213_" class="st1" d="M48.4,20.3"/>
	<path id="XMLID_221_" class="st2" d="M3.5,31.5L11,5.4l3.7,14.9L11,31.5v20.6H5.4L3.5,31.5z M34.8,24.2L33.4,9.1l1.9-5.6h-7.5
		l1.9,5.6l-1.4,15.2c-2.7-5-6.1-12.9-6.1-20.8L11,5.4l7.5,29.9c-7.5,13-3.7,28-3.7,28s9.2-3.8,13.1-14.9l3.7,3.7l3.7-3.7
		c3.9,11.1,13.1,14.9,13.1,14.9s3.4-14.7-3.7-28l7.5-29.9L40.9,3.5C40.9,11.3,37.5,19.2,34.8,24.2z M81.8,25.9c-5.5,0-13.1,0-13.1,0
		s-5.6-0.1-5.6,7.5l-1.4,2.9L52.1,5.4l-3.7,14.9l9.2,24.3l0,0l-5.6,9.3c0,0-3.7,5.6,5.6,5.6c1.7,0,2.9,0,3.7,0c0,0,5.5,0.1,9.3-5.6
		c3.8-5.7,11.2-18.7,11.2-18.7S87.4,25.9,81.8,25.9z"/>
	<g id="XMLID_418_">
		<path id="XMLID_425_" class="st3" d="M76.2,44.6h-3.7V31.6c-6.3,0.9-11.2,6.4-11.2,12.9h-3.7c0-9.3,7.5-16.8,16.8-16.8h1.9V44.6z"
			/>
	</g>
</g>
</svg>
