<?xml version="1.0" encoding="utf-8"?>
<!-- Generator: Adobe Illustrator 19.0.0, SVG Export Plug-In . SVG Version: 6.00 Build 0)  -->
<svg version="1.1" preserveAspectRatio="none" id="Layer_1" xmlns="http://www.w3.org/2000/svg" xmlns:xlink="http://www.w3.org/1999/xlink" x="0px" y="0px"
	 viewBox="0 0 1920.1 1079.9" style="enable-background:new 0 0 1920.1 1079.9;" xml:space="preserve">
<style type="text/css">
	.st0{fill:url(#XMLID_4305_);}
</style>
<linearGradient id="XMLID_4305_" gradientUnits="userSpaceOnUse" x1="960.0679" y1="437.9477" x2="960.0679" y2="1555.4171">
	<stop  offset="0" style="stop-color:#F8FBF8"/>
	<stop  offset="1" style="stop-color:#FFE8BE"/>
</linearGradient>
<path id="XMLID_845_" class="st0" d="M131.5,789.9c50.8,115.3,154.9,188.5,271.1,188.5c9.9,0,20-0.6,30-1.7
	c29.6-3.3,58.4-11.3,85.7-23.9c65.6,61,147.9,94.4,233.8,94.4c77.4,0,150.6-26.3,212.9-76.3c39.4,15.8,80.7,23.7,123,23.7
	c92.3,0,181.2-39.3,248.6-108.9c56,59.2,130,92.6,207.6,92.6c9.9,0,20-0.6,30-1.7c89.4-9.8,170.5-64.2,220.8-146.8
	c7.4,0.8,14.8,1.3,22.2,1.3c37.1,0,72.1-10.4,102.8-28.6v277.3h0.1V0H0v741.9c36.5,30.1,81.6,48,130.3,48
	C130.7,789.9,131.1,789.9,131.5,789.9z"/>
</svg>
