<?xml version="1.0" encoding="utf-8"?>
<!-- Generator: Adobe Illustrator 19.0.0, SVG Export Plug-In . SVG Version: 6.00 Build 0)  -->
<svg version="1.1" id="Layer_1" xmlns="http://www.w3.org/2000/svg" xmlns:xlink="http://www.w3.org/1999/xlink" x="0px" y="0px"
	 viewBox="0 0 356 356" style="enable-background:new 0 0 356 356;" xml:space="preserve">
<style type="text/css">
	.st0{fill:#965BA5;}
</style>
<g id="XMLID_341_">
	<polygon id="XMLID_19_" class="st0" points="8.2,260.4 32.9,260.4 32.9,169.8 49.4,120.4 32.9,54.5 0,169.8 	"/>
	<path id="XMLID_23_" class="st0" d="M238.1,227.3c0-17.1,5.9-32.8,15.6-45.3L214.2,54.5l-16.5,65.9L238.1,227.3z"/>
	<path id="XMLID_24_" class="st0" d="M345.2,145.1c-24.4,0-57.7,0-57.7,0s-21.6-0.3-24.4,26.9c13.1-11.6,30.3-18.7,49.1-18.7h8.2
		v74.1H304v-57.1c-27.9,4-49.4,28.1-49.4,57.1h-16.5l-24.7,41.2c0,0-16.5,24.7,24.7,24.7c7.5,0,12.8,0,16.5,0
		c0,0,24.4,0.3,41.2-24.7c16.8-25,49.4-82.4,49.4-82.4S369.6,145.1,345.2,145.1z"/>
	<path id="XMLID_25_" class="st0" d="M214.2,54.5l-49.4-8.2c0,34.5-15,69.3-26.9,91.5l-6.1-66.8l8.2-24.7h-32.9l8.2,24.7l-6.1,66.8
		c-11.9-22.2-26.9-57-26.9-91.5l-49.4,8.2l32.9,131.8c-32.9,57.2-16.5,123.6-16.5,123.6S90,293,107.1,243.9l16.5,16.5l16.5-16.5
		c17.1,49.1,57.7,65.9,57.7,65.9s15.1-65-16.5-123.6L214.2,54.5z"/>
</g>
</svg>
