<?xml version="1.0" encoding="utf-8"?>
<!-- Generator: Adobe Illustrator 19.0.0, SVG Export Plug-In . SVG Version: 6.00 Build 0)  -->
<svg version="1.1" id="Layer_1" xmlns="http://www.w3.org/2000/svg" xmlns:xlink="http://www.w3.org/1999/xlink" x="0px" y="0px"
	 viewBox="0 0 417.3 417.3" style="enable-background:new 0 0 417.3 417.3;" xml:space="preserve">
<style type="text/css">
	.st0{fill:#965BA5;}
</style>
<g id="XMLID_341_">
	<polygon id="XMLID_19_" class="st0" points="38.9,235.1 63.6,235.1 63.6,144.5 80.1,95.1 63.6,29.2 30.6,144.5 	"/>
	<path id="XMLID_23_" class="st0" d="M268.7,202c0-17.1,5.9-32.8,15.6-45.3L244.8,29.2l-16.5,65.9L268.7,202z"/>
	<path id="XMLID_24_" class="st0" d="M375.8,119.8c-24.4,0-57.7,0-57.7,0s-21.6-0.3-24.4,26.9c13.1-11.6,30.3-18.7,49.1-18.7h8.2
		v74.1h-16.5v-57.1c-27.9,4-49.4,28.1-49.4,57.1h-16.5L244,243.4c0,0-16.5,24.7,24.7,24.7c7.5,0,12.8,0,16.5,0
		c0,0,24.4,0.3,41.2-24.7c16.8-25,49.4-82.4,49.4-82.4S400.2,119.8,375.8,119.8z"/>
	<path id="XMLID_25_" class="st0" d="M244.8,29.2L195.4,21c0,34.5-15,69.3-26.9,91.5l-6.1-66.8l8.2-24.7h-32.9l8.2,24.7l-6.1,66.8
		C128,90.3,113,55.5,113,21l-49.4,8.2L96.5,161c-32.9,57.2-16.5,123.6-16.5,123.6s40.6-16.8,57.7-65.9l16.5,16.5l16.5-16.5
		c17.1,49.1,57.7,65.9,57.7,65.9s15.1-65-16.5-123.6L244.8,29.2z"/>
</g>
<path id="XMLID_396_" class="st0" d="M40,335.1c-1.2-1.5-1.8-2.8-1.8-4s1-2.7,3-4.6c1.1-1.1,2.4-1.7,3.6-1.7c1.3,0,3.1,1.1,5.4,3.4
	c0.6,0.8,1.6,1.5,2.8,2.2s2.3,1.1,3.3,1.1c4.3,0,6.4-1.7,6.4-5.2c0-1.1-0.6-1.9-1.8-2.7c-1.2-0.7-2.6-1.2-4.4-1.5
	c-1.7-0.3-3.6-0.8-5.6-1.5c-2-0.7-3.9-1.5-5.6-2.5c-1.7-1-3.2-2.5-4.4-4.6c-1.2-2.1-1.8-4.6-1.8-7.5c0-4,1.5-7.6,4.5-10.6
	c3-3,7.1-4.5,12.3-4.5c2.8,0,5.3,0.4,7.5,1.1c2.3,0.7,3.8,1.4,4.7,2.2l1.7,1.3c1.4,1.3,2.1,2.5,2.1,3.4c0,0.9-0.6,2.2-1.7,3.8
	c-1.6,2.3-3.2,3.4-4.8,3.4c-1,0-2.2-0.5-3.6-1.4c-0.1-0.1-0.4-0.3-0.8-0.7c-0.4-0.4-0.7-0.7-1.1-0.9c-1-0.6-2.2-0.9-3.7-0.9
	c-1.5,0-2.7,0.4-3.7,1.1c-1,0.7-1.5,1.7-1.5,3c0,1.3,0.6,2.3,1.8,3.1s2.6,1.3,4.4,1.6c1.7,0.3,3.6,0.7,5.7,1.3
	c2.1,0.6,4,1.3,5.7,2.1c1.7,0.8,3.2,2.3,4.4,4.3c1.2,2,1.8,4.6,1.8,7.5c0,3-0.6,5.6-1.8,7.9c-1.2,2.3-2.8,4-4.7,5.3
	c-3.7,2.4-7.7,3.6-11.9,3.6c-2.2,0-4.2-0.3-6.1-0.8c-1.9-0.5-3.5-1.2-4.7-2c-2.4-1.5-4.1-2.9-5.1-4.3L40,335.1z"/>
<path id="XMLID_398_" class="st0" d="M112.4,293.6c0.5-0.7,1.1-1.2,2-1.5c0.9-0.3,2-0.4,3.3-0.4s2.4,0.1,3.1,0.3
	c0.8,0.2,1.4,0.5,1.8,0.8c0.4,0.3,0.7,0.8,0.9,1.4c0.3,0.8,0.4,2,0.4,3.6v20.8c0,6.1-1.9,11.6-5.6,16.5c-1.8,2.3-4.2,4.2-7.1,5.7
	c-2.9,1.4-6.1,2.2-9.6,2.2s-6.7-0.7-9.6-2.2c-2.9-1.5-5.2-3.4-7-5.8c-3.7-4.9-5.6-10.4-5.6-16.5v-20.7c0-1.1,0-1.9,0.1-2.4
	s0.3-1.1,0.7-1.8c0.4-0.7,1-1.2,1.9-1.4c0.9-0.3,2-0.4,3.5-0.4c1.5,0,2.6,0.1,3.5,0.4c0.9,0.3,1.5,0.8,1.8,1.4
	c0.6,1.1,0.8,2.5,0.8,4.3v20.7c0,2.8,0.7,5.5,2.1,8c0.7,1.3,1.7,2.3,3.1,3.1c1.4,0.8,3,1.2,4.9,1.2c3.4,0,5.9-1.2,7.5-3.7
	c1.7-2.5,2.5-5.3,2.5-8.6v-21.1C111.7,295.6,111.9,294.3,112.4,293.6z"/>
<path id="XMLID_400_" class="st0" d="M129.4,297.8c0-1.1,0-1.8,0.1-2.4c0.1-0.5,0.3-1.1,0.7-1.8c0.6-1.2,2.4-1.9,5.4-1.9
	c3.2,0,5.1,0.8,5.7,2.5c0.2,0.8,0.3,2,0.3,3.6v38.3c0,1.1,0,1.9-0.1,2.4c-0.1,0.5-0.3,1.1-0.7,1.8c-0.6,1.2-2.4,1.9-5.4,1.9
	c-3.2,0-5.1-0.9-5.6-2.6c-0.3-0.7-0.4-1.9-0.4-3.5V297.8z"/>
<path id="XMLID_402_" class="st0" d="M150.4,291.7h38.3c1.5,0,2.5,0.2,3.2,0.5c0.7,0.3,1.1,0.9,1.4,1.6c0.2,0.7,0.3,1.7,0.3,2.9
	c0,1.2-0.1,2.1-0.3,2.9c-0.2,0.7-0.6,1.2-1.2,1.5c-0.8,0.4-2,0.6-3.5,0.6h-13.2v34.6c0,1.1,0,1.8-0.1,2.3c-0.1,0.5-0.3,1.1-0.6,1.8
	c-0.3,0.7-1,1.1-1.8,1.4c-0.9,0.3-2,0.4-3.4,0.4c-1.4,0-2.6-0.1-3.4-0.4c-0.9-0.3-1.4-0.7-1.8-1.4c-0.3-0.7-0.6-1.3-0.6-1.8
	c-0.1-0.5-0.1-1.3-0.1-2.4v-34.6h-13.2c-1.5,0-2.5-0.2-3.2-0.5c-0.7-0.3-1.1-0.9-1.4-1.6c-0.2-0.7-0.3-1.7-0.3-2.9
	c0-1.2,0.1-2.1,0.3-2.9c0.2-0.7,0.6-1.2,1.2-1.5C147.7,291.9,148.9,291.7,150.4,291.7z"/>
<path id="XMLID_404_" class="st0" d="M196.8,335.1c-1.2-1.5-1.8-2.8-1.8-4s1-2.7,3-4.6c1.1-1.1,2.4-1.7,3.6-1.7
	c1.3,0,3.1,1.1,5.4,3.4c0.6,0.8,1.6,1.5,2.8,2.2c1.2,0.7,2.3,1.1,3.3,1.1c4.3,0,6.4-1.7,6.4-5.2c0-1.1-0.6-1.9-1.8-2.7
	c-1.2-0.7-2.6-1.2-4.4-1.5c-1.7-0.3-3.6-0.8-5.6-1.5c-2-0.7-3.9-1.5-5.6-2.5c-1.7-1-3.2-2.5-4.4-4.6c-1.2-2.1-1.8-4.6-1.8-7.5
	c0-4,1.5-7.6,4.5-10.6c3-3,7.1-4.5,12.3-4.5c2.8,0,5.3,0.4,7.5,1.1c2.3,0.7,3.8,1.4,4.7,2.2l1.7,1.3c1.4,1.3,2.1,2.5,2.1,3.4
	c0,0.9-0.6,2.2-1.7,3.8c-1.6,2.3-3.2,3.4-4.8,3.4c-1,0-2.2-0.5-3.6-1.4c-0.1-0.1-0.4-0.3-0.8-0.7c-0.4-0.4-0.7-0.7-1.1-0.9
	c-1-0.6-2.2-0.9-3.7-0.9c-1.5,0-2.7,0.4-3.7,1.1c-1,0.7-1.5,1.7-1.5,3c0,1.3,0.6,2.3,1.8,3.1c1.2,0.8,2.6,1.3,4.4,1.6
	c1.7,0.3,3.6,0.7,5.7,1.3c2.1,0.6,4,1.3,5.7,2.1c1.7,0.8,3.2,2.3,4.4,4.3c1.2,2,1.8,4.6,1.8,7.5c0,3-0.6,5.6-1.8,7.9
	c-1.2,2.3-2.8,4-4.7,5.3c-3.7,2.4-7.7,3.6-11.9,3.6c-2.2,0-4.2-0.3-6.1-0.8c-1.9-0.5-3.5-1.2-4.7-2c-2.4-1.5-4.1-2.9-5.1-4.3
	L196.8,335.1z"/>
<path id="XMLID_406_" class="st0" d="M268.8,342.4c-2.8,0-5.6-0.7-8.4-2.2c-3.1,1.7-6.2,2.5-9.4,2.5c-8.4,0-12.5-3.5-12.5-10.5
	c0-3.6,1.9-7,5.6-10.1c-1.3-2.9-2-5.5-2-7.9c0-3.3,1-5.7,2.9-7.2c2-1.6,4.6-2.3,7.9-2.3c3.3,0,5.8,0.8,7.5,2.3
	c1.7,1.6,2.5,3.7,2.5,6.4c0,2.3-0.9,4.3-2.8,6.2c-1.4,1.4-3.3,2.9-5.8,4.5c1.9,2.5,4,4.7,6.3,6.4c0.9-1.4,1.5-2.8,1.9-4.3
	c0.3-1.4,1.8-2.1,4.4-2.1c1.1,0,1.9,0.1,2.5,0.4c0.6,0.3,0.9,0.6,1,0.9c0.1,0.3,0.1,0.7,0.1,1.2c-0.1,2.5-1.1,4.9-3,7.4
	c0.5,0.1,0.9,0.1,1.4,0.1c2.5,0,3.8,1.3,3.8,3.9c0,1.8-0.3,2.9-0.9,3.5S270.2,342.4,268.8,342.4z M251.4,335.5
	c0.8,0,1.5-0.1,2.2-0.2c-1.9-1.7-3.7-3.7-5.4-6.1c-0.7,0.9-1.1,1.9-1.1,2.9C247.1,334.4,248.5,335.5,251.4,335.5z M249.8,313.8
	c0,1.2,0.3,2.5,0.8,4c1.5-1,2.7-1.8,3.4-2.4c0.8-0.7,1.1-1.3,1.1-1.9c0-1.4-0.8-2.1-2.4-2.1C250.8,311.3,249.8,312.2,249.8,313.8z"
	/>
<path id="XMLID_410_" class="st0" d="M60.6,388.7c-1.2-1.5-1.8-2.8-1.8-4c0-1.2,1-2.7,3-4.6c1.1-1.1,2.4-1.7,3.6-1.7
	c1.3,0,3.1,1.1,5.4,3.4c0.6,0.8,1.6,1.5,2.8,2.2c1.2,0.7,2.3,1.1,3.3,1.1c4.3,0,6.4-1.7,6.4-5.2c0-1.1-0.6-1.9-1.8-2.7
	c-1.2-0.7-2.6-1.2-4.4-1.5c-1.7-0.3-3.6-0.8-5.6-1.5c-2-0.7-3.9-1.5-5.6-2.5c-1.7-1-3.2-2.5-4.4-4.6c-1.2-2.1-1.8-4.6-1.8-7.5
	c0-4,1.5-7.6,4.5-10.6c3-3,7.1-4.5,12.3-4.5c2.8,0,5.3,0.4,7.5,1.1c2.3,0.7,3.8,1.4,4.7,2.2l1.7,1.3c1.4,1.3,2.1,2.5,2.1,3.4
	c0,0.9-0.6,2.2-1.7,3.8c-1.6,2.3-3.2,3.4-4.8,3.4c-1,0-2.2-0.5-3.6-1.4c-0.1-0.1-0.4-0.3-0.8-0.7c-0.4-0.4-0.7-0.7-1.1-0.9
	c-1-0.6-2.2-0.9-3.7-0.9c-1.5,0-2.7,0.4-3.7,1.1c-1,0.7-1.5,1.7-1.5,3c0,1.3,0.6,2.3,1.8,3.1c1.2,0.8,2.6,1.3,4.4,1.6
	c1.7,0.3,3.6,0.7,5.7,1.3c2.1,0.6,4,1.3,5.7,2.1c1.7,0.8,3.2,2.3,4.4,4.3c1.2,2,1.8,4.6,1.8,7.5c0,3-0.6,5.6-1.8,7.9
	c-1.2,2.3-2.8,4-4.7,5.3c-3.7,2.4-7.7,3.6-11.9,3.6c-2.2,0-4.2-0.3-6.1-0.8c-1.9-0.5-3.5-1.2-4.7-2c-2.4-1.5-4.1-2.9-5.1-4.3
	L60.6,388.7z"/>
<path id="XMLID_412_" class="st0" d="M126.3,348.9l18.6,38.4c0.8,1.6,1.2,2.7,1.2,3.5c0,1.7-1.3,3.1-4,4.5c-1.6,0.8-2.8,1.2-3.7,1.2
	c-0.9,0-1.6-0.2-2.2-0.6c-0.6-0.4-1-0.8-1.2-1.3c-0.3-0.5-0.6-1.1-1.1-2.1l-3.6-7.4h-19.1l-3.6,7.4c-0.5,0.9-0.8,1.6-1.1,2
	c-0.3,0.4-0.7,0.8-1.2,1.3c-0.6,0.4-1.3,0.7-2.2,0.7c-0.9,0-2.1-0.4-3.7-1.2c-2.7-1.3-4-2.8-4-4.4c0-0.8,0.4-2,1.2-3.5l18.6-38.5
	c0.5-1.1,1.3-1.9,2.3-2.5c1-0.6,2.1-1,3.3-1C123.3,345.3,125.1,346.5,126.3,348.9z M120.7,365.4l-4.5,9.4h9.2L120.7,365.4z"/>
<path id="XMLID_415_" class="st0" d="M182.5,347.4c0.4-0.8,1.1-1.3,2-1.6c0.9-0.3,2-0.4,3.3-0.4c1.3,0,2.4,0.1,3.2,0.3
	c0.8,0.2,1.4,0.5,1.8,0.8c0.4,0.3,0.7,0.8,0.9,1.4c0.3,0.7,0.4,1.9,0.4,3.5v38.2c0,1.1,0,1.9-0.1,2.4c-0.1,0.5-0.3,1.1-0.7,1.8
	c-0.6,1.2-2.4,1.9-5.4,1.9c-1.8,0-3-0.1-3.7-0.4c-0.7-0.3-1.3-0.7-1.7-1.3c-10.3-13.8-17.1-22.8-20.4-27v22.7c0,1.1,0,1.9-0.1,2.4
	c-0.1,0.5-0.3,1.1-0.7,1.8c-0.6,1.2-2.4,1.9-5.4,1.9c-2.8,0-4.6-0.6-5.2-1.9c-0.4-0.7-0.6-1.3-0.7-1.9c-0.1-0.6-0.1-1.4-0.1-2.4
	v-38.4c0-1.7,0.2-3,0.7-3.8c0.4-0.8,1.1-1.3,2-1.6c0.9-0.3,2-0.4,3.4-0.4c1.4,0,2.5,0.1,3.3,0.4c0.8,0.3,1.4,0.5,1.7,0.9
	c0.2,0.1,0.7,0.7,1.6,1.8c9.7,13.2,16.2,21.9,19.4,26.1v-23.3C181.8,349.5,182,348.2,182.5,347.4z"/>
<path id="XMLID_417_" class="st0" d="M205.6,345.2l12.7,0.1c6.7,0,12.5,2.4,17.6,7.2c5,4.8,7.6,10.7,7.6,17.7s-2.5,13-7.4,18
	c-4.9,5-10.9,7.5-17.9,7.5h-12.6c-2.8,0-4.5-0.6-5.2-1.7c-0.5-1-0.8-2.4-0.8-4.4v-38.3c0-1.1,0-1.9,0.1-2.4c0.1-0.5,0.3-1.1,0.7-1.8
	C200.8,345.9,202.6,345.2,205.6,345.2z M227.3,379.8c2.7-2.5,4-5.5,4-9.3c0-3.7-1.3-6.8-3.9-9.3c-2.6-2.5-5.6-3.8-9.1-3.8h-6.6v26
	h6.7C221.6,383.5,224.6,382.3,227.3,379.8z"/>
<path id="XMLID_420_" class="st0" d="M273.6,348.9l18.6,38.4c0.8,1.6,1.2,2.7,1.2,3.5c0,1.7-1.3,3.1-4,4.5c-1.6,0.8-2.8,1.2-3.7,1.2
	s-1.6-0.2-2.2-0.6c-0.6-0.4-1-0.8-1.2-1.3c-0.3-0.5-0.6-1.1-1.1-2.1l-3.6-7.4h-19.1l-3.6,7.4c-0.5,0.9-0.8,1.6-1.1,2
	c-0.3,0.4-0.7,0.8-1.2,1.3c-0.6,0.4-1.3,0.7-2.2,0.7c-0.9,0-2.1-0.4-3.7-1.2c-2.7-1.3-4-2.8-4-4.4c0-0.8,0.4-2,1.2-3.5l18.6-38.5
	c0.5-1.1,1.3-1.9,2.3-2.5c1-0.6,2.1-1,3.3-1C270.6,345.3,272.4,346.5,273.6,348.9z M268,365.4l-4.5,9.4h9.2L268,365.4z"/>
<path id="XMLID_423_" class="st0" d="M309.3,385.6h18.7c1.5,0,2.6,0.2,3.3,0.5c0.7,0.3,1.1,0.9,1.4,1.6s0.3,1.7,0.3,2.9
	c0,1.2-0.1,2.2-0.3,2.9c-0.2,0.7-0.6,1.2-1.2,1.5c-0.9,0.5-2.1,0.7-3.6,0.7h-24.8c-3.2,0-5.1-0.9-5.6-2.6c-0.3-0.7-0.4-1.9-0.4-3.5
	v-38.3c0-1.1,0-1.8,0.1-2.4c0.1-0.5,0.3-1.1,0.7-1.8c0.6-1.2,2.4-1.9,5.4-1.9c3.2,0,5.1,0.8,5.7,2.5c0.2,0.8,0.3,2,0.3,3.6V385.6z"
	/>
<path id="XMLID_425_" class="st0" d="M338.3,388.7c-1.2-1.5-1.8-2.8-1.8-4c0-1.2,1-2.7,3-4.6c1.1-1.1,2.4-1.7,3.6-1.7
	c1.3,0,3.1,1.1,5.4,3.4c0.6,0.8,1.6,1.5,2.8,2.2c1.2,0.7,2.3,1.1,3.3,1.1c4.3,0,6.4-1.7,6.4-5.2c0-1.1-0.6-1.9-1.8-2.7
	c-1.2-0.7-2.6-1.2-4.4-1.5c-1.7-0.3-3.6-0.8-5.6-1.5c-2-0.7-3.9-1.5-5.6-2.5c-1.7-1-3.2-2.5-4.4-4.6c-1.2-2.1-1.8-4.6-1.8-7.5
	c0-4,1.5-7.6,4.5-10.6c3-3,7.1-4.5,12.3-4.5c2.8,0,5.3,0.4,7.5,1.1c2.3,0.7,3.8,1.4,4.7,2.2l1.7,1.3c1.4,1.3,2.1,2.5,2.1,3.4
	c0,0.9-0.6,2.2-1.7,3.8c-1.6,2.3-3.2,3.4-4.8,3.4c-1,0-2.2-0.5-3.6-1.4c-0.1-0.1-0.4-0.3-0.8-0.7c-0.4-0.4-0.7-0.7-1.1-0.9
	c-1-0.6-2.2-0.9-3.7-0.9c-1.5,0-2.7,0.4-3.7,1.1c-1,0.7-1.5,1.7-1.5,3c0,1.3,0.6,2.3,1.8,3.1c1.2,0.8,2.6,1.3,4.4,1.6
	c1.7,0.3,3.6,0.7,5.7,1.3c2.1,0.6,4,1.3,5.7,2.1c1.7,0.8,3.2,2.3,4.4,4.3c1.2,2,1.8,4.6,1.8,7.5c0,3-0.6,5.6-1.8,7.9
	c-1.2,2.3-2.8,4-4.7,5.3c-3.7,2.4-7.7,3.6-11.9,3.6c-2.2,0-4.2-0.3-6.1-0.8s-3.5-1.2-4.7-2c-2.4-1.5-4.1-2.9-5.1-4.3L338.3,388.7z"
	/>
</svg>
