<svg version="1.1" id="Layer_1" xmlns="http://www.w3.org/2000/svg" xmlns:xlink="http://www.w3.org/1999/xlink" x="0px" y="0px"
     viewBox="0 0 24 24" style="enable-background:new 0 0 24 24;" xml:space="preserve">
<g>
    <g>
        <path d="M0,17.8c0-0.2,0.1-0.4,0.1-0.7c0.2-1.2,0.7-2.2,1.6-3c0.7-0.7,1.4-1.4,2.1-2.1c0.4-0.4,0.9-0.5,1.4-0.3
            c0.5,0.2,0.8,0.7,0.7,1.2c0,0.3-0.2,0.6-0.4,0.9c-0.4,0.4-0.7,0.7-1.1,1.1c-0.4,0.4-0.7,0.7-1.1,1.1c-0.9,1-1.1,2.1-0.7,3.4
            c0.4,1.2,1.3,2,2.6,2.2c1.1,0.2,2.1-0.1,2.9-0.9c1.5-1.5,3.1-3.1,4.6-4.6c1.3-1.3,1.3-3.4,0-4.7c-0.6-0.6-0.5-1.6,0.2-2
            c0.5-0.3,1.1-0.2,1.5,0.2c0.8,0.8,1.3,1.8,1.5,2.9c0.4,2-0.1,3.8-1.5,5.3c-1.6,1.6-3.2,3.2-4.8,4.8c-0.9,0.9-2,1.4-3.2,1.6
            c-2.6,0.4-5.2-1-6.2-3.4c-0.3-0.6-0.4-1.3-0.5-1.9c0,0,0-0.1,0-0.1C0,18.3,0,18,0,17.8z"/>
        <path d="M24,6.2c0,0.2-0.1,0.5-0.1,0.7c-0.2,1.2-0.7,2.2-1.6,3.1c-0.7,0.7-1.4,1.4-2.1,2.1c-0.7,0.7-1.9,0.4-2.1-0.6
            c-0.1-0.5,0-0.9,0.4-1.2c0.7-0.7,1.3-1.3,2-2c0.2-0.2,0.3-0.3,0.4-0.5c1.4-2,0.2-4.8-2.2-5.2c-1.1-0.2-2.1,0.1-2.9,0.9
            c-1.5,1.5-3.1,3.1-4.6,4.6c-1.3,1.3-1.3,3.4,0,4.7c0.5,0.5,0.5,1.2,0.1,1.7c-0.5,0.5-1.3,0.6-1.8,0.1C8.8,14,8.3,13.2,8,12.3
            C7.3,10,7.8,8,9.4,6.3c1.5-1.5,3-3,4.5-4.5c0.8-0.8,1.7-1.3,2.7-1.6c1.9-0.5,3.7-0.1,5.2,1.2c1.1,0.9,1.7,2,2,3.4
            c0,0.2,0.1,0.4,0.1,0.7c0,0,0,0.1,0,0.1C24,5.7,24,6,24,6.2z"/>
    </g>
</g>
</svg>
