<?xml version="1.0" encoding="utf-8"?>
<!-- Generator: Adobe Illustrator 19.0.0, SVG Export Plug-In . SVG Version: 6.00 Build 0)  -->
<svg version="1.1" id="Layer_1" xmlns="http://www.w3.org/2000/svg" xmlns:xlink="http://www.w3.org/1999/xlink" x="0px" y="0px"
	 viewBox="-187.7 279 232.8 233" style="enable-background:new -187.7 279 232.8 233;" xml:space="preserve">
<style type="text/css">
	.st0{fill:#878682;}
</style>
<g id="XMLID_2_">
	<path id="XMLID_7_" class="st0" d="M-115.4,457.4l-14.4-6c2.6,5.3,7,9.8,12.8,12.2c12.7,5.3,27.3-0.7,32.6-13.5h0
		c2.6-6.1,2.6-12.9,0-19.1c-2.5-6.2-7.3-11-13.5-13.5c-6.1-2.5-12.6-2.5-18.4-0.3l14.9,6.2c9.4,3.9,13.8,14.7,9.9,24
		C-95.3,456.9-106,461.3-115.4,457.4z"/>
	<path id="XMLID_6_" class="st0" d="M-71.5,279c-61.7,0-112.3,48-116.3,108.8c0,0,0,0.1,0.1,0.1c0,0,0,0,0,0l62.6,25.8
		c1.7-1.1,3.5-2.1,5.5-2.9c4.4-1.8,9-2.6,13.6-2.4l28.5-41.4c0-0.2,0-0.4,0-0.6c0-24.4,19.9-44.3,44.3-44.3
		c24.4,0,44.3,19.9,44.3,44.3c0,24.4-19.8,44.3-44.3,44.3c-0.3,0-0.7,0-1,0L-75,439.8c0.1,4.5-0.7,9-2.5,13.3
		c-6.8,16.5-25.8,24.3-42.2,17.4c-10.1-4.2-16.9-12.9-19.1-22.8l-44.1-18.2C-168.4,477.2-124,512-71.5,512
		C-7.2,512,45,459.8,45,395.5C45,331.2-7.2,279-71.5,279z"/>
	<path id="XMLID_3_" class="st0" d="M-3.8,366.3c0-16.3-13.2-29.5-29.5-29.5c-16.3,0-29.5,13.3-29.5,29.5
		c0,16.3,13.2,29.5,29.5,29.5C-17,395.9-3.8,382.6-3.8,366.3z M-55.3,366.3c0-12.3,9.9-22.2,22.1-22.2c12.2,0,22.2,9.9,22.2,22.2
		c0,12.3-9.9,22.2-22.2,22.2C-45.4,388.5-55.3,378.5-55.3,366.3z"/>
</g>
</svg>
