<?xml version="1.0" standalone="no"?>
<!DOCTYPE svg PUBLIC "-//W3C//DTD SVG 20010904//EN"
 "http://www.w3.org/TR/2001/REC-SVG-20010904/DTD/svg10.dtd">
<svg version="1.0" xmlns="http://www.w3.org/2000/svg"
 width="374.000000pt" height="374.000000pt" viewBox="0 0 374.000000 374.000000"
 preserveAspectRatio="xMidYMid meet">
<metadata>
Created by potrace 1.11, written by Peter Selinger 2001-2013
</metadata>
<g transform="translate(0.000000,374.000000) scale(0.100000,-0.100000)"
fill="#000000" stroke="none">
<path d="M655 3148 c-126 -21 -233 -42 -236 -46 -3 -4 -79 -264 -168 -578
l-162 -570 40 -443 c23 -244 41 -449 41 -457 0 -11 25 -14 125 -14 l125 0 0
457 0 458 76 230 c42 126 80 234 84 238 7 8 160 -590 160 -627 0 -9 -16 -48
-36 -88 -52 -103 -111 -287 -135 -424 -18 -98 -22 -157 -22 -329 0 -192 18
-383 37 -402 10 -10 161 87 235 151 140 121 258 286 325 455 l17 44 77 -76
c43 -42 82 -77 87 -77 5 0 44 34 86 76 l76 76 51 -105 c27 -57 69 -133 92
-168 53 -77 176 -207 251 -265 67 -51 178 -118 186 -111 2 3 11 52 20 109 19
132 13 493 -11 616 -27 146 -65 274 -118 397 l-51 120 79 317 c43 175 82 314
85 310 4 -4 94 -238 201 -521 l193 -515 12 82 c16 103 59 221 110 302 39 61
40 63 28 104 -131 429 -379 1223 -384 1228 -3 4 -103 23 -221 43 -118 19 -227
38 -241 41 l-26 5 -12 -115 c-21 -212 -111 -502 -220 -716 l-39 -75 -6 35 c-3
19 -17 167 -32 328 l-26 292 38 113 c20 61 39 118 42 125 3 9 -34 12 -163 12
-129 0 -166 -3 -163 -12 3 -7 22 -64 43 -126 l37 -114 -26 -301 c-15 -166 -29
-313 -32 -327 -13 -57 -164 298 -219 514 -27 108 -55 285 -55 351 0 18 19 20
-255 -27z"/>
<path d="M2875 2176 c-81 -38 -132 -109 -151 -210 l-7 -39 54 41 c119 89 258
138 422 149 l97 6 0 -371 0 -372 -80 0 -80 0 0 285 0 285 -27 -6 c-172 -38
-320 -147 -396 -291 -41 -79 -67 -167 -67 -230 l0 -43 -84 0 -83 0 -138 -230
c-114 -191 -139 -239 -143 -279 -4 -43 -1 -52 28 -84 49 -56 100 -67 310 -67
150 0 186 3 234 20 107 36 195 102 263 194 99 134 486 787 558 941 74 157 85
247 36 296 l-29 29 -334 0 c-329 0 -334 0 -383 -24z"/>
</g>
</svg>
